<?xml version="1.0" standalone="no"?>
<!DOCTYPE svg PUBLIC "-//W3C//DTD SVG 20010904//EN"
 "http://www.w3.org/TR/2001/REC-SVG-20010904/DTD/svg10.dtd">
<svg version="1.0" xmlns="http://www.w3.org/2000/svg"
 width="502.000000pt" height="502.000000pt" viewBox="0 0 502.000000 502.000000"
 preserveAspectRatio="xMidYMid meet">
<metadata>
Created by potrace 1.14, written by Peter Selinger 2001-2017
</metadata>
<g transform="translate(0.000000,502.000000) scale(0.100000,-0.100000)"
fill="#000000" stroke="none">
<path d="M2380 4979 c-14 -4 -50 -13 -80 -19 -67 -15 -151 -41 -245 -77 -70
-27 -275 -129 -285 -141 -3 -4 -25 -18 -50 -31 -25 -13 -49 -29 -55 -35 -5 -6
-36 -28 -67 -49 -31 -21 -66 -46 -76 -55 -11 -9 -37 -30 -58 -47 -184 -144
-536 -489 -801 -785 -60 -68 -211 -257 -224 -283 -7 -12 -15 -24 -19 -27 -4
-3 -40 -54 -79 -115 -127 -195 -231 -419 -285 -615 -21 -78 -25 -102 -39 -225
-27 -247 27 -502 167 -790 58 -119 207 -355 252 -402 11 -10 35 -38 54 -62 89
-111 278 -287 451 -422 92 -73 351 -249 364 -249 4 0 25 -13 48 -28 53 -36
189 -111 201 -110 5 0 12 -4 15 -9 3 -5 32 -22 64 -38 31 -15 60 -32 63 -36 3
-5 9 -7 14 -4 5 3 11 1 15 -5 4 -6 11 -8 16 -5 5 4 9 2 9 -3 0 -5 10 -13 23
-17 30 -10 26 -8 82 -34 64 -30 224 -93 295 -116 30 -10 62 -20 70 -23 8 -3
20 -6 25 -7 6 0 16 -4 23 -8 6 -5 12 -5 12 -1 0 3 6 2 13 -4 6 -5 39 -16 72
-23 33 -7 65 -14 70 -15 6 -2 53 -12 105 -23 84 -17 130 -19 405 -17 306 3
338 5 403 25 18 5 36 10 40 11 19 2 90 22 117 33 17 6 33 12 38 13 4 1 8 2 10
4 1 1 10 3 20 5 42 8 291 138 347 182 8 6 47 35 85 63 96 71 285 265 372 380
202 268 372 627 483 1020 31 111 94 376 104 440 3 19 12 78 20 130 25 162 29
218 31 435 1 126 -4 248 -12 305 -7 52 -16 115 -19 140 -3 25 -8 48 -10 51 -2
3 -6 21 -9 40 -10 60 -35 147 -66 235 -114 323 -327 619 -604 839 -28 21 -52
42 -55 45 -10 10 -160 110 -165 110 -4 0 -21 11 -38 23 -74 55 -313 174 -532
267 -75 31 -300 105 -349 114 -11 2 -48 11 -81 19 -33 9 -78 19 -100 23 -56
10 -564 13 -595 3z"/>
</g>
</svg>
